<svg width="142" height="34" viewBox="0 0 142 34" fill="none" xmlns="http://www.w3.org/2000/svg">
<path d="M41.1067 11.6249L45.2023 11.521C45.4046 12.4566 46.2642 12.8724 47.7811 12.8724C48.4384 12.8724 48.944 12.7684 49.298 12.5605C49.6519 12.3526 49.8542 12.0408 49.8542 11.6769C49.8542 11.1571 49.4497 10.8453 48.6406 10.6374L45.7585 10.0656C44.3427 9.75375 43.2809 9.33793 42.6742 8.81815C42.0168 8.29838 41.7134 7.51872 41.7134 6.53115C41.7134 5.80346 41.9157 5.17973 42.3202 4.60798C43.2304 3.30854 44.9495 2.68481 47.5788 2.68481C49.1463 2.68481 50.4104 2.84075 51.2699 3.15261C52.2306 3.46448 52.888 4.03623 53.343 4.86787C53.5453 5.28369 53.697 5.69951 53.7475 6.1673L49.6519 6.42719C49.5508 6.11533 49.3991 5.85544 49.1463 5.64753C48.8935 5.4916 48.6406 5.38764 48.3878 5.33566C48.1856 5.28369 47.8822 5.28369 47.5788 5.28369C46.3653 5.28369 45.7585 5.59555 45.7585 6.21928C45.7585 6.53115 45.9102 6.79103 46.2642 6.94696C46.6181 7.1029 47.2249 7.25883 48.1856 7.46674L49.6519 7.77861C50.0058 7.88256 50.2587 7.93454 50.4104 7.93454C50.562 7.98651 50.8149 8.03849 51.1688 8.14245C51.5733 8.2464 51.8261 8.35036 52.0284 8.45431C52.2306 8.55827 52.4329 8.66222 52.7363 8.87013C53.0397 9.07804 53.2419 9.23397 53.3936 9.44188C53.5453 9.64979 53.6464 9.90968 53.7981 10.2215C53.8992 10.5334 53.9498 10.8453 53.9498 11.2091C53.9498 12.0408 53.697 12.8204 53.1913 13.4441C52.1801 14.7436 50.2081 15.4193 47.2249 15.4193C43.4326 15.5752 41.4101 14.2758 41.1067 11.6249Z" fill="#0B0B14"/>
<path d="M70.6338 9.18144C70.6338 11.4165 69.7742 13.1317 68.0551 14.3272C67.3472 14.847 66.5382 15.1588 65.7292 15.3668C64.8696 15.5747 63.9089 15.6786 62.7965 15.6786C60.8245 15.6786 59.1559 15.3148 57.8918 14.5351C57.2851 14.1713 56.83 13.7555 56.4255 13.2877C56.021 12.8199 55.7682 12.3001 55.5659 11.8323C55.4142 11.3125 55.2625 10.8967 55.212 10.5329C55.1614 10.169 55.1108 9.80517 55.1108 9.44132C55.1108 8.71364 55.212 8.08991 55.3637 7.46618C55.5153 6.84245 55.7176 6.32268 56.021 5.90686C56.2738 5.49104 56.5772 5.12719 56.83 4.86731C57.0828 4.60742 57.3862 4.34753 57.6896 4.13962C58.9537 3.25601 60.6728 2.78821 62.847 2.78821C63.8583 2.78821 64.7179 2.84019 65.4763 2.99612C66.2348 3.15205 66.8921 3.35996 67.3978 3.61985C67.9034 3.87974 68.3585 4.1916 68.6618 4.45149C69.0158 4.76335 69.2686 5.07522 69.572 5.49104C70.2799 6.63454 70.6338 7.83002 70.6338 9.18144ZM66.3359 9.23341C66.3359 8.86957 66.2854 8.45375 66.1842 8.08991C66.0831 7.72607 65.9314 7.31025 65.6786 6.89443C65.4258 6.47861 65.0718 6.16674 64.6168 5.90686C64.1617 5.64697 63.5549 5.49104 62.8976 5.49104C61.7852 5.49104 60.8751 5.85488 60.3189 6.58256C59.7121 7.31025 59.4087 8.19386 59.4087 9.23341C59.4087 9.64923 59.4593 10.117 59.611 10.5329C59.7121 10.9487 59.9144 11.3645 60.1672 11.7283C60.42 12.0922 60.7739 12.404 61.2796 12.6639C61.7346 12.8718 62.3414 13.0278 62.9482 13.0278C63.6055 13.0278 64.2123 12.9238 64.7179 12.6119C65.2235 12.3521 65.5775 11.9882 65.7797 11.5724C65.982 11.1566 66.1337 10.7408 66.2348 10.3769C66.2854 10.0131 66.3359 9.59726 66.3359 9.23341Z" fill="#0B0B14"/>
<path d="M83.3767 5.90805H79.2305V15.212H75.0337V5.90805H70.8875V3.2572H83.3767V5.90805Z" fill="#0B0B14"/>
<path d="M98.1437 15.212H93.5424L91.1153 10.8459H88.8906V15.212H84.6938V3.2572H93.2896C94.2503 3.2572 95.0593 3.36116 95.7166 3.56907C96.3739 3.77698 96.8796 4.1928 97.3347 4.92048C97.7392 5.59619 97.9414 6.27189 97.9414 7.05156C97.9414 7.25947 97.9414 7.46738 97.8908 7.62331C97.8908 7.83122 97.7897 8.09111 97.6886 8.40297C97.5875 8.71484 97.4358 8.97472 97.2841 9.23461C97.0818 9.4945 96.829 9.70241 96.4751 9.96229C96.1211 10.1702 95.7166 10.3781 95.2615 10.4301L98.1437 15.212ZM88.8906 5.96003V8.14308H92.0255C92.7839 8.14308 93.2896 7.98715 93.4918 7.72726C93.6435 7.51935 93.7446 7.31144 93.7446 7.05156C93.7446 6.79167 93.6941 6.63574 93.5424 6.42783C93.3401 6.11596 92.9356 5.96003 92.3289 5.96003H88.8906Z" fill="#0B0B14"/>
<path d="M113.465 15.2114H108.914L108.307 13.2362H103.807L103.2 15.2114H98.599L103.655 3.20459H108.408L113.465 15.2114ZM107.397 10.6374L106.032 6.58312L104.717 10.6374H107.397Z" fill="#0B0B14"/>
<path d="M127.467 15.212H124.029L118.467 8.81879V15.212H114.371V3.2572H117.81L123.372 9.54647V3.2572H127.467V15.212Z" fill="#0B0B14"/>
<path d="M128.884 11.6249L132.979 11.521C133.182 12.4566 134.041 12.8724 135.558 12.8724C136.215 12.8724 136.721 12.7684 137.075 12.5605C137.429 12.3526 137.631 12.0408 137.631 11.6769C137.631 11.1571 137.227 10.8453 136.418 10.6374L133.536 10.0656C132.12 9.75375 131.058 9.33793 130.451 8.81815C129.794 8.29838 129.49 7.51872 129.49 6.53115C129.49 5.80346 129.693 5.17973 130.097 4.60798C131.007 3.30854 132.727 2.68481 135.356 2.68481C136.923 2.68481 138.187 2.84075 139.047 3.15261C140.008 3.46448 140.665 4.03623 141.12 4.86787C141.322 5.28369 141.474 5.69951 141.525 6.1673L137.429 6.42719C137.328 6.11533 137.176 5.85544 136.923 5.64753C136.67 5.4916 136.418 5.38764 136.165 5.33566C135.963 5.28369 135.659 5.28369 135.356 5.28369C134.142 5.28369 133.536 5.59555 133.536 6.21928C133.536 6.53115 133.687 6.79103 134.041 6.94696C134.395 7.1029 135.002 7.25883 135.963 7.46674L137.429 7.77861C137.783 7.88256 138.036 7.93454 138.187 7.93454C138.339 7.98651 138.592 8.03849 138.946 8.14245C139.35 8.2464 139.603 8.35036 139.805 8.45431C140.008 8.55827 140.21 8.66222 140.513 8.87013C140.817 9.07804 141.019 9.23397 141.171 9.44188C141.322 9.64979 141.423 9.90968 141.575 10.2215C141.676 10.5334 141.727 10.8453 141.727 11.2091C141.727 12.0408 141.474 12.8204 140.968 13.4441C139.957 14.7436 137.985 15.4193 135.002 15.4193C131.21 15.5752 129.187 14.2758 128.884 11.6249Z" fill="#0B0B14"/>
<path d="M41.2596 21.6566H48.3385V22.6962H45.3047V31.5843H44.2934V22.6962H41.2596V21.6566Z" fill="#0B0B14"/>
<path d="M53.2935 30.5967H59.0072V31.5843H52.2317V21.6566H58.8555V22.6962H53.2935V25.9188H57.7431V26.9063H53.2935V30.5967Z" fill="#0B0B14"/>
<path d="M66.285 25.5549L68.9648 21.6566H70.2289L66.8917 26.4385L70.4817 31.5843H69.2682L66.285 27.2702L63.3017 31.5843H62.0882L65.6782 26.4385L62.341 21.6566H63.6051L66.285 25.5549Z" fill="#0B0B14"/>
<path d="M74.4279 31.5843V21.6566H75.4391V30.5967H80.6472V21.6566H81.709V30.5967H82.9225V33.7154H81.9112V31.5843H74.4279Z" fill="#0B0B14"/>
<path d="M88.0309 30.5967H93.7445V31.5843H87.0196V21.6566H93.5928V22.6962H88.0309V25.9188H92.531V26.9063H88.0309V30.5967Z" fill="#0B0B14"/>
<path d="M97.9917 31.5843V21.6566H99.0535V26.0747H104.413V21.6566H105.425V31.5843H104.413V27.0623H99.0535V31.5843H97.9917Z" fill="#0B0B14"/>
<path d="M109.369 21.6566H116.448V22.6962H113.414V31.5843H112.403V22.6962H109.369V21.6566Z" fill="#0B0B14"/>
<path d="M120.39 21.6566H124.031C124.941 21.6566 125.649 21.9685 126.256 22.5402C126.862 23.112 127.115 23.8916 127.115 24.7753C127.115 25.6589 126.812 26.3866 126.256 27.0103C125.649 27.634 124.941 27.8939 124.031 27.8939H121.402V31.5843H120.39V21.6566ZM124.031 22.6962H121.402V26.9063H124.031C124.638 26.9063 125.143 26.6984 125.548 26.3346C125.902 25.9707 126.104 25.451 126.104 24.7753C126.104 24.0996 125.902 23.6318 125.548 23.2159C125.143 22.8521 124.638 22.6962 124.031 22.6962Z" fill="#0B0B14"/>
<path d="M135.055 31.5839H131.567V21.6562H132.578V25.3466H135.055C135.966 25.3466 136.674 25.6585 137.28 26.2303C137.887 26.802 138.14 27.5817 138.14 28.4653C138.14 29.3489 137.836 30.0766 137.28 30.7003C136.674 31.2721 135.915 31.5839 135.055 31.5839ZM132.578 30.5964H135.055C135.662 30.5964 136.168 30.3885 136.572 30.0246C136.926 29.6608 137.129 29.141 137.129 28.4653C137.129 27.8416 136.926 27.3218 136.572 26.906C136.218 26.5421 135.713 26.3342 135.055 26.3342H132.578V30.5964ZM140.82 31.5839H139.808V21.6562H140.82V31.5839Z" fill="#0B0B14"/>
<path d="M16.7885 2.58042C16.1818 3.7759 15.2716 4.55557 14.8671 4.34766C14.4121 4.13975 14.5638 2.99624 15.1705 1.80076C15.7773 0.60528 16.6874 -0.174383 17.0919 0.0335272C17.547 0.241437 17.3953 1.38494 16.7885 2.58042Z" fill="#070B0B"/>
<path d="M16.4832 2.47595C15.9775 3.41154 15.3202 4.03527 14.9663 3.93132C14.6123 3.77538 14.764 2.89177 15.2697 1.95617C15.7753 1.07256 16.4326 0.396851 16.7866 0.500806C17.1405 0.656738 16.9888 1.54035 16.4832 2.47595Z" fill="#EB5D2F"/>
<path d="M27.4559 29.1929C26.7986 29.2449 26.0907 29.1929 25.484 29.037C24.7761 28.7771 22.8041 28.3093 21.1861 23.6833C19.8209 19.733 17.7478 19.5771 17.7478 19.5771C18.1523 18.3816 18.1017 17.0302 17.5961 15.8347C17.0904 14.7432 16.1803 13.9635 15.9275 13.4438C15.6747 12.924 15.5735 12.3003 15.6241 11.6765C15.8769 9.28557 18.7085 5.23133 17.8995 3.62003C16.3826 0.553357 7.07888 4.34771 8.09015 6.94658C8.74747 8.76579 14.4611 7.05054 14.4611 7.05054C14.1578 8.40195 13.4499 9.59743 12.4892 10.4811C11.6296 11.1048 10.77 11.6765 9.75874 12.0404C8.09015 12.924 5.86536 13.8596 4.85409 16.2505C4.50015 17.1342 4.34845 18.1217 4.50014 19.0573C4.75296 20.7726 5.76423 22.3319 7.28113 23.3195C7.78677 23.6313 8.34297 23.9432 8.89917 24.2031C9.4048 25.3986 10.4161 26.3342 11.6802 26.75C11.6802 26.75 12.2869 28.985 7.48339 29.3489C5.76423 29.5048 3.08437 28.4653 3.08437 28.4653C1.06183 29.141 0 31.6359 0 31.6359H17.3433C17.3433 31.6359 19.0624 30.9082 16.7871 29.7647C16.1297 29.4528 13.9049 28.6212 13.8544 26.4381C13.8038 25.8144 14.0061 25.1907 14.4106 24.6709C14.9668 24.0991 15.8264 23.8912 16.5848 24.2031C17.3433 24.515 18.0006 24.9828 18.4557 25.5545C20.2254 27.7376 22.0962 31.5839 25.2817 31.376C28.265 31.1681 27.5065 29.141 27.4559 29.1929Z" fill="black"/>
<path d="M26.95 28.7251C26.95 28.7251 25.1803 29.5048 24.4724 29.1929C23.7645 28.8811 22.6521 28.1014 21.0341 24.0471C19.5172 20.2008 17.4441 19.9409 17.4441 19.9409C17.6463 18.6415 17.5452 17.2901 17.0396 16.0426C16.5845 15.0031 15.7249 14.1195 14.7136 13.6517L16.0788 14.1714C15.4721 13.5477 15.2193 12.7161 15.371 11.9364C15.6238 9.59742 18.3542 5.33526 17.6969 3.93187C16.4328 1.07311 7.83701 4.97142 8.64602 6.84261C9.40447 8.50589 15.1687 6.84261 15.1687 6.84261C15.1687 6.84261 14.7642 9.18159 13.2473 10.585C12.59 11.1567 11.8821 11.6245 11.1236 11.9884C9.5056 12.82 6.82574 13.7556 5.51109 16.2505C4.29756 18.4856 5.30884 21.1884 6.8763 22.4878C7.48306 22.9556 8.14039 23.3714 8.79771 23.7873C8.74715 23.5793 8.74715 23.3714 8.74715 23.1635V22.8517C8.74715 22.6957 8.79771 22.5398 8.79771 22.3839V22.4358C8.84827 22.124 8.9494 21.7601 9.05053 21.5002C8.84827 22.6957 9.15166 23.8912 9.80898 24.8788C10.3652 25.6584 11.1742 26.2822 11.9832 26.646C11.9832 26.646 12.1349 27.7375 11.5281 28.3613C10.9214 28.985 9.91011 29.4008 7.68532 29.6607C6.06729 29.8166 4.34813 29.6087 2.83123 29.089C1.87052 29.4008 1.2132 30.1285 0.859253 31.0641H17.2924C17.2924 31.0641 18.1519 30.8042 15.9272 29.6607C14.5619 29.037 13.7529 27.7375 13.7024 26.3861C13.7024 24.9308 14.208 24.2031 15.017 23.7873C15.6743 23.4754 16.3822 23.4754 16.989 23.7873C20.1239 25.3986 20.9329 31.0641 25.6859 31.4279C28.9725 31.6878 27.0005 28.7771 26.95 28.7251Z" fill="#EB5C2C"/>
<path d="M21.7924 28.361C21.7418 26.3339 23.4104 24.6187 25.5846 24.6187C27.7083 24.6187 29.478 26.178 29.478 28.2571C29.5286 30.2842 27.86 31.9995 25.6858 31.9995H25.6352C23.461 31.9475 21.7924 30.3362 21.7924 28.361Z" fill="black"/>
<path d="M18.7599 2.83967C18.052 4.1391 17.1419 4.97074 16.5857 4.76283C16.0295 4.50294 16.1812 3.25548 16.8385 1.95605C17.4958 0.656612 18.4565 -0.175028 19.0127 0.0328818C19.5184 0.344747 19.4172 1.59221 18.7599 2.83967Z" fill="#070B0B"/>
<path d="M14.1572 4.24363C14.1572 3.93176 14.4605 3.67188 14.7639 3.67188C15.1179 3.67188 15.3707 3.93176 15.3707 4.24363C15.3707 4.55549 15.1179 4.81538 14.7639 4.81538C14.41 4.81538 14.1572 4.60747 14.1572 4.24363Z" fill="#070B0B"/>
<path d="M18.66 2.58011C18.1038 3.67164 17.2948 4.39932 16.9409 4.24339C16.5364 4.08746 16.6881 3.04791 17.2443 1.95638C17.8005 0.864857 18.6095 0.137172 18.9634 0.293105C19.3174 0.449037 19.1657 1.54056 18.66 2.58011Z" fill="#EB5D2F"/>
<path d="M9.86046 17.1341C6.67497 16.4064 5.46144 15.4188 5.46144 15.4188L5.61314 15.1589C5.61314 15.1589 4.90525 14.7951 4.70299 15.003C4.50074 15.2629 3.0344 18.1217 4.80412 20.4606C5.6637 21.5522 6.97835 22.1759 8.39412 22.1239C8.39412 22.1239 7.78736 20.5646 8.14131 19.4731C8.59638 18.5375 9.15257 17.8098 9.86046 17.1341Z" fill="black"/>
<path d="M9.00262 17.3422C8.44642 17.914 8.09248 18.6417 7.94079 19.3694C7.73853 20.253 7.7891 21.1366 8.1936 21.9162C8.1936 21.9162 5.61487 21.5004 4.6036 19.3174C4.0474 17.966 4.14853 16.4586 4.85642 15.1592C5.26093 15.471 5.66543 15.7309 6.1205 15.9908C7.18234 16.6145 9.00262 17.3422 9.00262 17.3422Z" fill="#FCDEBA"/>
<path d="M18.4555 11.5726L34.3324 13.6517L18.3544 12.6122L18.4555 11.5726Z" fill="black"/>
<path d="M19.2631 14.4833L31.8028 16.4584L19.2631 15.6268V14.4833Z" fill="black"/>
<path d="M20.3775 17.3422L36.7601 19.5772L20.2258 18.3817L20.3775 17.3422Z" fill="black"/>
<path d="M25.8901 27.7377C25.8395 27.6858 25.7384 27.6338 25.6878 27.6338H25.2327V28.2575H25.6878C25.7889 28.2575 25.8395 28.2055 25.8901 28.1536C26.0417 28.0496 26.0417 27.8417 25.8901 27.7377Z" fill="#EA5D2C"/>
<path d="M14.3598 18.4335C14.3598 18.4335 14.7643 13.1318 13.0957 13.4956C11.5283 13.8595 12.7923 18.0177 12.7923 18.0177C12.6407 17.6538 11.0226 13.9114 12.944 13.0798C15.2194 12.7679 14.3598 18.4335 14.3598 18.4335Z" fill="black"/>
<path d="M14.7122 19.1084C13.7009 19.3163 12.639 19.5242 11.5772 19.5762C10.6165 20.044 10.1109 20.8756 9.45355 20.4598C8.59397 19.94 9.2513 18.7965 9.95919 18.4327C10.2626 18.2767 10.6671 18.1208 11.021 18.0168C11.021 18.0168 9.15017 18.2248 8.74566 19.4722C8.54341 19.992 8.84679 20.6157 9.35242 20.8236C9.85806 20.9796 10.4143 20.8236 10.7682 20.4078C11.0716 20.1479 11.4255 19.94 11.83 19.7841C12.8919 19.7321 13.8526 19.4722 14.7122 19.1084Z" fill="black"/>
<path d="M25.585 26.2303C24.3715 26.2303 23.4108 27.114 23.4108 28.3094C23.4108 29.4529 24.3715 30.3885 25.585 30.3885C26.8491 30.3885 27.7592 29.5049 27.7592 28.3094C27.8098 27.1659 26.7985 26.2303 25.585 26.2303ZM25.9389 29.245L25.5344 28.5693H25.231V29.245H24.776V27.3219H25.7367C25.9389 27.3219 26.0906 27.3739 26.2423 27.5298C26.3434 27.6857 26.4446 27.7897 26.4446 27.9456C26.4446 28.1015 26.394 28.2575 26.3434 28.3094C26.2423 28.4134 26.1412 28.4654 26.0401 28.5174L26.4951 29.245H25.9389Z" fill="#EB5C2C"/>
</svg>
