<svg width="18" height="22" viewBox="0 0 18 22" fill="none" xmlns="http://www.w3.org/2000/svg">
<path d="M9.00004 0C4.03762 0 0 4.0468 0 9.02042C0 13.864 3.4877 17 6.85995 20.0321C7.4233 20.539 7.98405 21.0431 8.52574 21.5537L9 22L9.47426 21.5537C10.016 21.0432 10.5767 20.539 11.1401 20.0321C14.5123 17 18 13.864 18 9.02042C18 4.04676 13.9625 0 8.99996 0H9.00004ZM8.99988 12.7214C6.96053 12.7214 5.30751 11.0644 5.30751 9.02062C5.30751 6.97666 6.96057 5.31989 8.99988 5.31989C11.0392 5.31989 12.6923 6.9767 12.6923 9.02062C12.6923 11.0644 11.0392 12.7214 8.99988 12.7214Z" fill="white"/>
</svg>
